<svg width="216" height="41" viewBox="0 0 216 41" fill="none" xmlns="http://www.w3.org/2000/svg">
<g clip-path="url(#clip0)">
<path d="M70.4592 31.9499V8.91504L60.7062 31.9499H56.116L46.4514 9.0035V31.9499H41.2886V0.661041H48.3508L58.4995 24.5385L68.5179 0.661041H75.7105V31.9499H70.4592Z" fill="#211F20"/>
<path d="M84.2625 19.6411L89.7791 18.7985C91.0175 18.6262 91.3713 18.007 91.3713 17.2575C91.3713 15.4466 90.133 13.9987 87.3071 13.9987C84.6163 13.9987 83.1173 15.7212 82.8938 17.8813L78.2384 16.8246C78.6341 13.1003 81.986 9.8089 87.2839 9.8089C93.9038 9.8089 96.4177 13.5565 96.4177 17.8394V28.5096C96.4052 29.6619 96.494 30.8131 96.6831 31.9499H91.9067C91.7308 31.0502 91.6574 30.1335 91.6879 29.2172C90.673 30.8512 88.5548 32.6156 85.0679 32.6156C80.5661 32.6156 77.7869 29.5245 77.7869 26.126C77.7869 22.2853 80.6127 20.1671 84.2625 19.6411ZM91.3713 23.0395V22.0665L85.7848 22.9045C84.1927 23.1699 82.9125 24.0544 82.9125 25.8188C82.9125 27.2759 84.0158 28.612 86.0502 28.612C88.9179 28.598 91.3806 27.2294 91.3806 23.0395H91.3713Z" fill="#211F20"/>
<path d="M99.588 40.6462L104.746 29.3941L95.5704 10.4606H101.352L107.539 24.0544L113.321 10.4606H118.75L105.058 40.6462H99.588Z" fill="#211F20"/>
<path d="M121.17 31.908C121.319 33.2162 121.955 34.4203 122.953 35.2791C123.951 36.138 125.236 36.5884 126.552 36.5401C130.612 36.5401 132.641 34.4685 132.641 30.0971V27.8485C131.71 29.5245 129.555 30.9816 126.422 30.9816C120.682 30.9816 116.492 26.5683 116.492 20.521C116.492 14.7855 120.505 10.0603 126.422 10.0603C129.774 10.0603 131.85 11.429 132.776 13.1934V10.4607H137.72V29.9202C137.72 35.6603 134.76 41 126.687 41C120.994 41 117.018 37.4666 116.445 33.1417L121.17 31.908ZM132.776 20.521C132.776 16.8572 130.449 14.469 127.26 14.469C124.001 14.469 121.673 16.8525 121.673 20.521C121.673 24.2732 123.922 26.6102 127.26 26.6102C130.523 26.6102 132.776 24.208 132.776 20.521Z" fill="#211F20"/>
<path d="M148.134 32.5877C143.013 32.5877 140.011 28.7936 140.011 24.0264V10.4606H145.132V23.0814C145.132 25.7303 146.365 27.9789 149.457 27.9789C152.413 27.9789 153.958 25.9957 153.958 23.1699V10.4606H159.079V28.0254C159.078 29.3367 159.152 30.6469 159.298 31.9499H154.401C154.282 31.1625 154.223 30.3673 154.224 29.571C153.162 31.5123 150.648 32.5877 148.134 32.5877Z" fill="#211F20"/>
<path d="M167.329 19.6411L172.845 18.7985C174.084 18.6262 174.437 18.007 174.437 17.2575C174.437 15.4466 173.199 13.9987 170.378 13.9987C167.682 13.9987 166.188 15.7212 165.965 17.8813L161.286 16.8246C161.682 13.1003 165.033 9.8089 170.331 9.8089C176.951 9.8089 179.465 13.5565 179.465 17.8394V28.5096C179.453 29.6619 179.541 30.8131 179.731 31.9499H174.963C174.788 31.0502 174.714 30.1335 174.745 29.2172C173.73 30.8512 171.612 32.6156 168.125 32.6156C163.623 32.6156 160.844 29.5245 160.844 26.126C160.844 22.2853 163.669 20.1671 167.329 19.6411ZM174.437 23.0395V22.0665L168.851 22.9045C167.259 23.1699 165.983 24.0544 165.983 25.8188C165.983 27.2759 167.087 28.612 169.116 28.612C171.965 28.598 174.437 27.2294 174.437 23.0395Z" fill="#211F20"/>
<path d="M194.693 15.535C194.139 15.4478 193.578 15.4027 193.017 15.4C189.041 15.4 187.235 17.6951 187.235 21.7127V31.9546H182.114V10.4607H187.1V13.901C188.115 11.5733 190.498 10.1767 193.324 10.1767C193.784 10.1785 194.242 10.2221 194.693 10.307V15.535Z" fill="#211F20"/>
<path d="M215.079 28.0254C215.078 29.3367 215.151 30.647 215.298 31.9499H210.424C210.288 31.0247 210.213 30.0917 210.2 29.1567C209.185 30.9676 206.941 32.4667 203.892 32.4667C197.71 32.4667 193.562 27.6111 193.562 21.1261C193.562 14.9484 197.752 9.86942 203.804 9.86942C207.556 9.86942 209.451 11.5919 210.112 12.9606V0H215.079V28.0254ZM204.441 27.9789C207.793 27.9789 210.135 25.1856 210.135 21.0936C210.135 17.0015 207.844 14.4317 204.488 14.4317C201.131 14.4317 198.664 17.0341 198.664 21.1401C198.664 25.2462 200.959 27.9789 204.446 27.9789H204.441Z" fill="#211F20"/>
<path opacity="0.3" d="M16.8432 0.209489C16.088 0.208044 15.34 0.356229 14.6425 0.645483C13.9449 0.934738 13.3116 1.35933 12.779 1.89474C12.7464 1.92267 12.7232 1.95992 12.6906 1.98785L12.6068 1.89474C11.8027 1.09119 10.7785 0.544027 9.66356 0.322399C8.54863 0.10077 7.39301 0.214623 6.34276 0.649569C5.29252 1.08452 4.39477 1.82103 3.76298 2.76604C3.1312 3.71106 2.79372 4.82214 2.79321 5.95889V10.6143H5.98681V5.95889C5.98681 5.62265 6.05304 5.2897 6.18171 4.97905C6.31039 4.6684 6.49899 4.38613 6.73675 4.14837C6.97451 3.91061 7.25678 3.72201 7.56743 3.59333C7.87808 3.46466 8.21103 3.39843 8.54727 3.39843C8.88352 3.39843 9.21647 3.46466 9.52712 3.59333C9.83777 3.72201 10.12 3.91061 10.3578 4.14837C10.5956 4.38613 10.7842 4.6684 10.9128 4.97905C11.0415 5.2897 11.1077 5.62265 11.1077 5.95889V10.6143H14.3013V5.95889C14.3013 5.27982 14.5711 4.62855 15.0513 4.14837C15.5315 3.66819 16.1827 3.39843 16.8618 3.39843C17.5409 3.39843 18.1921 3.66819 18.6723 4.14837C19.1525 4.62855 19.4223 5.27982 19.4223 5.95889V13.1841H22.6159V5.95889C22.6159 5.20191 22.4664 4.45237 22.176 3.7533C21.8856 3.05423 21.46 2.41939 20.9237 1.8852C20.3873 1.35101 19.7508 0.928 19.0505 0.640438C18.3503 0.352875 17.6002 0.206425 16.8432 0.209489Z" fill="url(#paint0_linear)"/>
<path d="M23.5609 11.55V6.741C23.5604 5.60425 23.2229 4.49316 22.5911 3.54815C21.9594 2.60314 21.0616 1.86662 20.0114 1.43168C18.9611 0.99673 17.8055 0.882877 16.6906 1.10451C15.5756 1.32613 14.5514 1.8733 13.7474 2.67685L13.6636 2.76995C13.631 2.73737 13.6077 2.70478 13.5751 2.67685C12.7711 1.8733 11.7468 1.32613 10.6319 1.10451C9.51697 0.882877 8.36135 0.99673 7.3111 1.43168C6.26086 1.86662 5.36311 2.60314 4.73132 3.54815C4.09954 4.49316 3.76206 5.60425 3.76155 6.741V11.3964H6.95515V6.741C6.95515 6.06192 7.22491 5.41066 7.70509 4.93048C8.18527 4.4503 8.83654 4.18054 9.51561 4.18054C10.1947 4.18054 10.846 4.4503 11.3261 4.93048C11.8063 5.41066 12.0761 6.06192 12.0761 6.741V11.3964H15.2697V6.741C15.2697 6.06192 15.5394 5.41066 16.0196 4.93048C16.4998 4.4503 17.1511 4.18054 17.8301 4.18054C18.5092 4.18054 19.1605 4.4503 19.6407 4.93048C20.1208 5.41066 20.3906 6.06192 20.3906 6.741V11.4616H4.65539C3.4207 11.4616 2.23659 11.952 1.36353 12.8251C0.490477 13.6981 0 14.8823 0 16.117L0 27.5273C0 28.762 0.490477 29.9461 1.36353 30.8192C2.23659 31.6922 3.4207 32.1827 4.65539 32.1827H22.6671C23.9018 32.1827 25.0859 31.6922 25.9589 30.8192C26.832 29.9461 27.3225 28.762 27.3225 27.5273V16.117C27.322 15.0377 26.9467 13.9921 26.2605 13.1591C25.5744 12.326 24.6201 11.7572 23.5609 11.55ZM16.3358 20.6327C16.2015 21.1734 15.906 21.6605 15.4885 22.0293V24.5665C15.4885 25.0509 15.2964 25.5156 14.9543 25.8585C14.6122 26.2015 14.148 26.3948 13.6636 26.396C13.1783 26.396 12.713 26.2033 12.3699 25.8602C12.0268 25.5171 11.834 25.0517 11.834 24.5665V22.0246C11.4165 21.6558 11.121 21.1687 10.9867 20.628C10.8559 20.0876 10.8927 19.5202 11.0923 19.0013C11.2919 18.4824 11.6448 18.0365 12.104 17.7231C12.5621 17.4043 13.1064 17.2326 13.6645 17.2308C14.2226 17.2291 14.768 17.3974 15.228 17.7134C15.6881 18.0293 16.041 18.478 16.2397 18.9995C16.4384 19.521 16.4735 20.0907 16.3404 20.6327H16.3358Z" fill="url(#paint1_linear)"/>
</g>
<defs>
<linearGradient id="paint0_linear" x1="2.79321" y1="6.6991" x2="22.5926" y2="6.6991" gradientUnits="userSpaceOnUse">
<stop stop-color="#F6BD1E"/>
<stop offset="0.23" stop-color="#F79E25"/>
<stop offset="0.75" stop-color="#F95C33"/>
<stop offset="1" stop-color="#FA4238"/>
</linearGradient>
<linearGradient id="paint1_linear" x1="0" y1="16.5871" x2="27.3225" y2="16.5871" gradientUnits="userSpaceOnUse">
<stop stop-color="#FA4238"/>
<stop offset="0.25" stop-color="#F95C33"/>
<stop offset="0.77" stop-color="#F79E25"/>
<stop offset="1" stop-color="#F6BD1E"/>
</linearGradient>
<clipPath id="clip0">
<rect width="215.302" height="41" fill="white"/>
</clipPath>
</defs>
</svg>
